<?xml version="1.0" encoding="utf-8"?>
<!-- Generator: Adobe Illustrator 21.0.2, SVG Export Plug-In . SVG Version: 6.00 Build 0)  -->
<svg version="1.1" id="Layer_1" xmlns="http://www.w3.org/2000/svg" xmlns:xlink="http://www.w3.org/1999/xlink" x="0px" y="0px"
	 viewBox="0 0 375.1 375.1" style="enable-background:new 0 0 375.1 375.1;" xml:space="preserve">
<style type="text/css">
	.st0{fill:#473EFF;}
</style>
<g>
	<path class="st0" d="M367.6,302.6l-25.1-25.1c9.1-10.4,14.7-23.9,14.7-38.7c0-21.2-11.3-39.7-28.1-50.1v-109
		c0-11-8.7-19.7-19.7-19.7H27.3c-11,0-19.7,8.7-19.7,19.7v175.8c0,11,8.6,19.7,19.7,19.7h137v32H80.4c-2.2,0-4,1.8-4,4s1.8,4,4,4
		h175.8c2.2,0,4-1.8,4-4s-1.8-4-4-4h-83.8v-32h79.9c10.8,13.7,27.4,22.5,46.2,22.5c14.7,0,28.1-5.4,38.4-14.4l25.1,25.1L367.6,302.6
		z M27.3,68h282.1c6.6,0,11.6,5,11.6,11.6v104.9c-7-2.9-14.6-4.5-22.6-4.5c-22.6,0-42.2,12.8-52.1,31.6H15.6V79.7
		C15.6,73,20.6,68,27.3,68z M27.3,267.1c-6.6,0-11.6-5-11.6-11.6v-35.8h227.2c-2.1,6-3.3,12.5-3.3,19.2c0,10.2,2.6,19.9,7.3,28.2
		H27.3z M298.4,289.6c-16.6,0-31.3-8-40.5-20.3c-0.2-0.4-0.5-0.8-0.8-1.1c-5.9-8.3-9.4-18.4-9.4-29.3c0-28,22.8-50.7,50.7-50.7
		s50.7,22.8,50.7,50.7C349.1,266.8,326.3,289.6,298.4,289.6z"/>
	<g>
		<path class="st0" d="M69.1,197c-2.2,0-4-1.8-4-4v-51.2c0-2.2,1.8-4,4-4s4,1.8,4,4V193C73.1,195.1,71.3,197,69.1,197z"/>
		<path class="st0" d="M106.5,197c-2.2,0-4-1.8-4-4v-71.3c0-2.2,1.8-4,4-4s4,1.8,4,4V193C110.5,195.1,108.7,197,106.5,197z"/>
		<path class="st0" d="M143.9,197c-2.2,0-4-1.8-4-4V92.3c0-2.2,1.8-4,4-4s4,1.8,4,4V193C147.9,195.1,146.1,197,143.9,197z"/>
		<path class="st0" d="M181.3,197c-2.2,0-4-1.8-4-4v-77.4c0-2.2,1.8-4,4-4s4,1.8,4,4V193C185.3,195.1,183.5,197,181.3,197z"/>
		<path class="st0" d="M218.7,197c-2.2,0-4-1.8-4-4v-50.1c0-2.2,1.8-4,4-4s4,1.8,4,4V193C222.8,195.1,220.9,197,218.7,197z"/>
	</g>
</g>
</svg>
