<?xml version="1.0" encoding="utf-8"?>
<!-- Generator: Adobe Illustrator 21.0.2, SVG Export Plug-In . SVG Version: 6.00 Build 0)  -->
<svg version="1.1" id="Layer_1" xmlns="http://www.w3.org/2000/svg" xmlns:xlink="http://www.w3.org/1999/xlink" x="0px" y="0px"
	 viewBox="0 0 375 375" style="enable-background:new 0 0 375 375;" xml:space="preserve">
<style type="text/css">
	.st0{fill:#473EFF;}
	.st1{fill:#FFFFFF;}
</style>
<g>
	<g>
		<g>
			<g>
				<path class="st0" d="M187.7,372.1c-1.3,0-2.5-0.2-3.6-0.5c-24-7.5-64.5-25.9-99.4-53.3c-26.9-21.1-59.1-54.5-59.1-93.2v-165
					c0-5.3,3.5-10,8.6-11.5l150-45c2.3-0.7,4.6-0.7,6.9,0l150,45c5.1,1.5,8.6,6.2,8.6,11.5v165c0,38.7-32.1,72-59.1,93.2
					c-34.9,27.3-75.3,45.8-99.4,53.3C190.1,371.9,188.9,372.1,187.7,372.1z M187.7,12.1c-0.3,0-0.6,0-0.9,0.1l-150,45
					c-1.3,0.4-2.1,1.6-2.1,2.9v165c0,35.1,30.2,66.2,55.6,86.1c33.9,26.6,73.2,44.5,96.5,51.8c0.5,0.2,1.3,0.2,1.7,0
					c23.4-7.3,62.6-25.2,96.5-51.8c25.4-19.9,55.6-51,55.6-86.1v-165c0-1.3-0.9-2.5-2.2-2.9l-150-45C188.2,12.1,188,12.1,187.7,12.1
					z"/>
			</g>
		</g>
		<g>
			<rect x="183.2" y="7.9" class="st0" width="9" height="359.7"/>
		</g>
	</g>
	<path class="st1" d="M187.7,106.5c42.2,0,76.5,34.2,76.5,76.5s-34.2,76.5-76.5,76.5s-76.5-34.2-76.5-76.5"/>
	<path class="st0" d="M187.7,264c-44.7,0-81-36.3-81-81s36.3-81,81-81s81,36.3,81,81S232.3,264,187.7,264z M187.7,111
		c-39.7,0-72,32.3-72,72s32.3,72,72,72s72-32.3,72-72S227.4,111,187.7,111z"/>
	<g>
		<path class="st1" d="M159.7,186.1l19.6,17.1l34.7-40.3"/>
		<path class="st0" d="M179.2,207.7c-1.1,0-2.1-0.4-3-1.1l-19.6-17.1c-1.9-1.6-2.1-4.5-0.4-6.3c1.6-1.9,4.5-2.1,6.3-0.4l16.2,14.1
			l31.7-36.9c1.6-1.9,4.5-2.1,6.3-0.5c1.9,1.6,2.1,4.5,0.5,6.3l-34.7,40.3c-0.8,0.9-1.9,1.5-3.1,1.6
			C179.4,207.7,179.3,207.7,179.2,207.7z"/>
	</g>
</g>
</svg>
