<?xml version="1.0" encoding="utf-8"?>
<!-- Generator: Adobe Illustrator 21.0.2, SVG Export Plug-In . SVG Version: 6.00 Build 0)  -->
<svg version="1.1" id="Layer_1" xmlns="http://www.w3.org/2000/svg" xmlns:xlink="http://www.w3.org/1999/xlink" x="0px" y="0px"
	 viewBox="0 0 375.1 375.1" style="enable-background:new 0 0 375.1 375.1;" xml:space="preserve">
<style type="text/css">
	.st0{fill:#473EFF;}
</style>
<g>
	<g>
		<g>
			<g>
				<path class="st0" d="M187.5,367.6c-1.2,0-2.4-0.2-3.5-0.5c-53.9-16.7-154.5-75.9-154.5-142.9V63.3c0-5.2,3.5-9.9,8.5-11.4
					L184.1,8.1c2.3-0.7,4.6-0.7,6.8,0L337.1,52c5,1.5,8.5,6.2,8.5,11.4v160.8c0,67-100.7,126.2-154.5,142.9
					C190,367.4,188.8,367.6,187.5,367.6z M187.5,16.8c-0.3,0-0.5,0-0.8,0.1L40.6,60.8c-1.1,0.3-1.9,1.4-1.9,2.6v160.8
					c0,34.1,29.4,64.3,54.1,83.7c33,25.9,71.2,43.3,93.9,50.4c0.5,0.1,1.1,0.2,1.5,0c51.7-16.1,148.1-71.9,148.1-134.1V63.3
					c0-1.2-0.8-2.2-1.9-2.6L188.3,16.9C188.1,16.8,187.8,16.8,187.5,16.8z"/>
			</g>
		</g>
	</g>
	<g>
		<g>
			<g>
				<g>
					<path class="st0" d="M205.3,280.7h-29.9c-8.7,0-13.9-5.2-13.9-13.8v-19.1c-5.8-2.5-11.2-5.6-16.3-9.5l-15.5,8.9
						c-2.7,1.5-5.3,2.3-7.8,2.3c-3.2,0-7.7-1.3-11.2-7.3l-15.4-26.6c-0.1-0.2-0.3-0.5-0.3-0.8c-0.1-0.2-0.2-0.4-0.3-0.6
						c-3.4-7-1.3-13.5,5.7-17.6l15.9-9.2c-0.2-2-0.3-4-0.5-6v-2.3c0-3.3,0.2-6.5,0.6-9.7l-16-9.2c-3.7-2.2-6-4.9-6.8-7.9
						c-1.8-4.5,0.8-9.3,1.6-10.9l15.6-26.8c3.4-6.1,7.9-7.4,11.1-7.4c2.5,0,5,0.8,7.6,2.3l16.7,9.6c1.3-1,2.6-1.9,3.9-2.8
						c3.7-2.3,7.4-4.3,11.3-6V91c0-8.7,5.2-13.8,13.9-13.8h29.9c8.7,0,13.8,5.2,13.8,13.8v19.2c5.6,2.3,11.1,5.5,16.3,9.6l15.5-9
						c2.6-1.6,5.2-2.4,7.7-2.4c3.2,0,7.7,1.3,11.3,7.5l15.3,26.6c4.3,7.5,2.6,14.3-4.8,18.9l-16.1,9.2c0.2,1.8,0.3,3.7,0.4,5.5v2.7
						c0,3.3-0.2,6.5-0.6,9.7l16.1,9.3c3.3,1.8,5.7,4.3,6.8,7.4c0.9,2.6,0.7,5.4-0.3,8.5c-0.2,0.8-0.7,1.9-1.5,3.2L270,243.4
						c-3.7,6-8.1,7.3-11.2,7.3c-2.5,0-5.1-0.8-7.8-2.4l-16.6-9.6l-3.7,2.8c-4.2,2.5-7.9,4.4-11.5,5.9v19.4
						C219.2,275.5,214,280.7,205.3,280.7z M145.8,228.1c1.1,0,2.1,0.4,3,1.1c5.8,4.9,12.2,8.6,19.1,11.2c1.8,0.7,3,2.4,3,4.3v22.2
						c0,3.6,1,4.6,4.6,4.6h29.9c3.6,0,4.6-1,4.6-4.6v-22.5c0-1.9,1.2-3.7,3-4.3c4-1.5,8.1-3.5,12.6-6.1l5.7-4.3
						c1.5-1.1,3.5-1.2,5.1-0.3l19.3,11.1c1.6,0.9,2.6,1.1,3.1,1.1c1,0,2.1-0.9,3.3-2.8l15.3-26.5c0.5-0.7,0.5-1,0.5-1
						c0.7-2,0.5-2.7,0.4-2.9c-0.4-1-1.6-1.8-2.6-2.4l-18.9-11c-1.7-1-2.6-2.9-2.2-4.8c0.6-3.8,1-7.5,1-11.3v-2
						c-0.2-2.8-0.3-5.5-0.7-8.2c-0.2-1.8,0.7-3.6,2.3-4.5l18.6-10.6c3-1.9,3.3-3.2,1.5-6.3L262,120.5c-1.1-1.9-2.2-2.9-3.2-2.9
						c-0.5,0-1.5,0.2-3,1.1l-18.3,10.6c-1.7,1-3.8,0.8-5.3-0.5c-6.1-5.1-12.5-8.8-19.1-11.1c-1.9-0.7-3.1-2.4-3.1-4.4V91
						c0-3.6-1-4.6-4.6-4.6h-29.9c-3.6,0-4.6,1-4.6,4.6v22.5c0,1.9-1.2,3.7-3,4.3c-4.3,1.6-8.5,3.7-12.4,6.2
						c-1.9,1.3-3.9,2.7-5.8,4.2c-1.5,1.1-3.5,1.3-5.1,0.3l-19.3-11.1c-1.2-0.7-2.2-1-3-1c-0.4,0-1.6,0-3.1,2.7l-15.6,26.7
						c-0.8,1.6-1.2,2.8-0.9,3.5c0.3,1,1,1.8,2.7,2.8L124,163c1.7,1,2.6,2.9,2.3,4.8c-0.7,3.7-1,7.4-1,11.3v2.1
						c0.2,2.6,0.3,5.3,0.8,7.9c0.3,1.9-0.6,3.8-2.2,4.8l-18.6,10.8c-3,1.8-3.2,3.1-2.2,5.2c0.3,0.4,0.5,0.9,0.7,1.4l15.2,26.3
						c1.5,2.7,2.8,2.7,3.2,2.7c0.8,0,1.9-0.4,3.1-1.1l18.3-10.4C144.2,228.3,145,228.1,145.8,228.1z"/>
				</g>
			</g>
		</g>
		<path class="st0" d="M190.4,213c-18.8,0-34-15.3-34-34c0-18.8,15.3-34,34-34s34,15.3,34,34C224.5,197.7,209.2,213,190.4,213z
			 M190.4,154.2c-13.7,0-24.8,11.1-24.8,24.8s11.1,24.8,24.8,24.8s24.8-11.1,24.8-24.8S204.1,154.2,190.4,154.2z"/>
	</g>
</g>
</svg>
