<?xml version="1.0" encoding="utf-8"?>
<!-- Generator: Adobe Illustrator 21.0.2, SVG Export Plug-In . SVG Version: 6.00 Build 0)  -->
<svg version="1.1" id="Layer_1" xmlns="http://www.w3.org/2000/svg" xmlns:xlink="http://www.w3.org/1999/xlink" x="0px" y="0px"
	 viewBox="0 0 375.1 375.1" style="enable-background:new 0 0 375.1 375.1;" xml:space="preserve">
<style type="text/css">
	.st0{fill:#473EFF;}
</style>
<g>
	<path class="st0" d="M98.9,97.3C74.1,97.3,54,77.2,54,52.4C54,27.7,74.1,7.6,98.9,7.6c24.7,0,44.9,20.1,44.9,44.9
		C143.7,77.2,123.6,97.3,98.9,97.3z M98.9,16.3c-19.9,0-36.1,16.2-36.1,36.1S79,88.5,98.9,88.5S135,72.3,135,52.4
		S118.8,16.3,98.9,16.3z"/>
	<path class="st0" d="M129.3,367.6c-2.4,0-4.4-2-4.4-4.4v-91.6c0-2.2,1.6-4.1,3.8-4.3c16-2,28.1-15.6,28.1-31.8V165
		c0-17.7-14.4-32.1-32.1-32.1h-52c-17.7,0-32.1,14.4-32.1,32.1v70.5c0,15.9,11.4,29.3,27.1,31.7c2.1,0.3,3.7,2.2,3.7,4.3v91.8
		c0,2.4-2,4.4-4.4,4.4s-4.4-2-4.4-4.4V275C44.8,270.5,32,254.4,32,235.4v-70.5c0-22.5,18.3-40.8,40.8-40.8h52
		c22.5,0,40.8,18.3,40.8,40.8v70.5c0,19.3-13.5,35.8-32,39.9v87.9C133.7,365.6,131.8,367.6,129.3,367.6z"/>
	<path class="st0" d="M263.4,308.8H233V190.3h31.1c2.4,0,4.4-2,4.4-4.4s-2-4.4-4.4-4.4H233V63.1h30.4c2.4,0,4.4-2,4.4-4.4
		s-2-4.4-4.4-4.4h-34.8c-2.4,0-4.4,2-4.4,4.4v122.8h-26.6c-2.4,0-4.4,2-4.4,4.4s2,4.4,4.4,4.4h26.6v122.8c0,2.4,2,4.4,4.4,4.4h34.8
		c2.4,0,4.4-2,4.4-4.4C267.8,310.8,265.8,308.8,263.4,308.8z"/>
	<path class="st0" d="M313.4,91c-16.4,0-29.7-13.3-29.7-29.7s13.3-29.7,29.7-29.7c16.4,0,29.7,13.3,29.7,29.7S329.8,91,313.4,91z
		 M313.4,40.4c-11.5,0-20.9,9.4-20.9,20.9c0,11.6,9.4,20.9,20.9,20.9s20.9-9.4,20.9-20.9C334.3,49.7,324.9,40.4,313.4,40.4z"/>
	<path class="st0" d="M313.4,215.7c-16.4,0-29.7-13.3-29.7-29.7s13.3-29.7,29.7-29.7c16.4,0,29.7,13.3,29.7,29.7
		C343.1,202.3,329.8,215.7,313.4,215.7z M313.4,165c-11.5,0-20.9,9.4-20.9,20.9s9.4,20.9,20.9,20.9s20.9-9.4,20.9-20.9
		S324.9,165,313.4,165z"/>
	<path class="st0" d="M313.4,344.7c-16.4,0-29.7-13.3-29.7-29.7c0-16.4,13.3-29.7,29.7-29.7c16.4,0,29.7,13.3,29.7,29.7
		C343.1,331.4,329.8,344.7,313.4,344.7z M313.4,294.1c-11.5,0-20.9,9.4-20.9,21c0,11.5,9.4,20.9,20.9,20.9s20.9-9.4,20.9-20.9
		C334.3,303.5,324.9,294.1,313.4,294.1z"/>
	<path class="st0" d="M311.7,73.9c-0.9,0-1.7-0.3-2.5-0.8l-9-6.4c-2-1.4-2.5-4.1-1.1-6.1s4.1-2.5,6.1-1.1l5.5,3.8l9.4-13.3
		c1.4-2,4.1-2.4,6.1-1s2.4,4.1,1,6.1l-11.9,16.8C314.4,73.3,313.1,73.9,311.7,73.9z"/>
	<path class="st0" d="M311.7,200.3c-0.9,0-1.7-0.3-2.5-0.8l-9-6.4c-2-1.4-2.5-4.1-1.1-6.1s4.1-2.5,6.1-1.1l5.5,3.8l9.4-13.3
		c1.4-2,4.1-2.4,6.1-1s2.4,4.1,1,6.1l-11.9,16.8C314.4,199.6,313.1,200.3,311.7,200.3z"/>
	<path class="st0" d="M311.7,328.8c-0.9,0-1.7-0.3-2.5-0.8l-9-6.4c-2-1.4-2.5-4.1-1.1-6.1s4.1-2.5,6.1-1.1l5.5,3.9l9.4-13.3
		c1.4-2,4.1-2.4,6.1-1s2.4,4.1,1,6.1L315.3,327C314.4,328.2,313.1,328.8,311.7,328.8z"/>
</g>
</svg>
