<?xml version="1.0" encoding="utf-8"?>
<!-- Generator: Adobe Illustrator 21.0.2, SVG Export Plug-In . SVG Version: 6.00 Build 0)  -->
<svg version="1.1" xmlns="http://www.w3.org/2000/svg" xmlns:xlink="http://www.w3.org/1999/xlink" x="0px" y="0px"
	 viewBox="0 0 375 375" style="enable-background:new 0 0 375 375;" xml:space="preserve">
<style type="text/css">
	.st0{display:none;}
	.st1{display:inline;}
	.st2{fill:#0085CE;}
	.st3{fill:#473EFF;}
</style>
<g id="GDPR_ICON" class="st0">
	<g class="st1">
		<g>
			<g>
				<g>
					<path class="st2" d="M187.6,371.9c-2.5,0-4.5-2-4.5-4.5V246.3c0-2.5,2-4.5,4.5-4.5s4.5,2,4.5,4.5v121.2
						C192.1,369.9,190.1,371.9,187.6,371.9z"/>
				</g>
				<g>
					<g>
						<path class="st2" d="M367.6,191.9H245.4c-2.5,0-4.5-2-4.5-4.5s2-4.5,4.5-4.5h122.3c2.5,0,4.5,2,4.5,4.5
							S370.1,191.9,367.6,191.9z"/>
					</g>
					<g>
						<g>
							<path class="st2" d="M128.7,191.9H7.6c-2.5,0-4.5-2-4.5-4.5s2-4.5,4.5-4.5h121.1c2.5,0,4.5,2,4.5,4.5
								S131.2,191.9,128.7,191.9z"/>
						</g>
						<g>
							<path class="st2" d="M187.6,134.9c-2.5,0-4.5-2-4.5-4.5V7.4c0-2.5,2-4.5,4.5-4.5s4.5,2,4.5,4.5v123
								C192.1,132.9,190.1,134.9,187.6,134.9z"/>
						</g>
						<g>
							<path class="st2" d="M187.6,371.9C85.9,371.9,3.1,289.2,3.1,187.4C3.1,85.7,85.9,2.9,187.6,2.9
								c101.7,0,184.5,82.8,184.5,184.5C372.1,289.2,289.3,371.9,187.6,371.9z M187.6,11.9c-96.8,0-175.5,78.7-175.5,175.5
								s78.7,175.5,175.5,175.5s175.5-78.7,175.5-175.5S284.4,11.9,187.6,11.9z"/>
							<path class="st2" d="M187.6,310.1C120,310.1,65,255,65,187.4S120,64.8,187.6,64.8c67.6,0,122.6,55,122.6,122.6
								C310.3,255.1,255.2,310.1,187.6,310.1z M187.6,73.8c-62.7,0-113.6,51-113.6,113.6c0,62.7,51,113.6,113.6,113.6
								c62.7,0,113.6-51,113.6-113.6C301.3,124.8,250.3,73.8,187.6,73.8z"/>
						</g>
					</g>
				</g>
			</g>
		</g>
		<g>
			<path class="st2" d="M187.6,248.9c-33.9,0-61.5-27.6-61.5-61.5s27.6-61.5,61.5-61.5c33.9,0,61.5,27.6,61.5,61.5
				S221.5,248.9,187.6,248.9z M187.6,134.9c-29,0-52.5,23.6-52.5,52.5s23.6,52.5,52.5,52.5s52.5-23.6,52.5-52.5
				S216.6,134.9,187.6,134.9z"/>
		</g>
		<path class="st2" d="M187.6,219.9c-2.5,0-4.5-2-4.5-4.5v-34c0-2.5,2-4.5,4.5-4.5s4.5,2,4.5,4.5v34
			C192.1,217.8,190.1,219.9,187.6,219.9z"/>
		<circle class="st2" cx="187.6" cy="163.3" r="5.8"/>
	</g>
</g>
<g id="Layer_1">
	<g>
		<path class="st3" d="M186.1,331.4h105.8c4.7,0,8.5-3.8,8.5-8.5c0-14.2-4.9-28-13.9-39c-5.1-6.2-11.2-11.2-18.2-15
			c7-7.5,10.9-17.3,10.9-27.5c0-22.1-18-40.2-40.2-40.2s-40.2,18-40.2,40.2c0,10.2,3.9,20,10.9,27.5c-7,3.8-13.2,8.9-18.2,15
			c-9,10.9-13.9,24.8-13.9,39C177.6,327.5,181.4,331.4,186.1,331.4z M229.6,271.2l-1.4-0.5c-12.2-4.5-20.4-16.3-20.4-29.3
			c0-17.2,14-31.2,31.2-31.2s31.2,14,31.2,31.2c0,13-8.2,24.8-20.4,29.3l-1.4,0.5l1.4,0.3c24,5,41.4,26.4,41.6,50.9h-105
			c0.2-24.5,17.7-45.9,41.6-50.9L229.6,271.2z"/>
		<path class="st3" d="M65.4,275.6c0,2.6,2.1,4.6,4.6,4.6h76.4c2.6,0,4.6-2.1,4.6-4.6c0-2.6-2.1-4.6-4.6-4.6H70.1
			C67.5,271,65.4,273.1,65.4,275.6z"/>
		<path class="st3" d="M65.4,325.5c0,2.6,2.1,4.6,4.6,4.6h84.3c2.6,0,4.6-2.1,4.6-4.6c0-2.6-2.1-4.6-4.6-4.6H70.1
			C67.5,320.8,65.4,322.9,65.4,325.5z"/>
		<path class="st3" d="M70.1,305.2h61.4c2.6,0,4.6-2.1,4.6-4.6c0-2.6-2.1-4.6-4.6-4.6H70.1c-2.6,0-4.6,2.1-4.6,4.6
			C65.4,303.1,67.5,305.2,70.1,305.2z"/>
		<path class="st3" d="M323.6,156l-38.2,0v-55c0-54-43.9-97.9-97.9-97.9c-54,0-97.9,43.9-97.9,97.9v65.2l-63.6,63.6
			c-1.1,1.2-1.4,2.1-1.4,4.3v130.5c0,4,3.2,7.2,7.2,7.2h291.7c4,0,7.2-3.2,7.2-7.2V163.2C330.8,159.2,327.5,156,323.6,156z
			 M40.3,228.2l53.1-53.1v53.1L40.3,228.2z M275.5,156L105,156c-1.9,0-3.7,0.5-5.4,1.4V101c0-48.5,39.5-88,88-88
			c48.5,0,88,39.5,88,88V156z M102.2,230.7l0.1-63.3c0-0.7,0.3-1.4,0.8-1.9c0.5-0.5,1.2-0.8,1.9-0.8l217,0V363H33.5V237l62.5-0.1
			c1.7,0,3.2-0.6,4.4-1.8C101.6,233.9,102.2,232.4,102.2,230.7z"/>
	</g>
</g>
</svg>
