<?xml version="1.0" encoding="utf-8"?>
<!-- Generator: Adobe Illustrator 21.1.0, SVG Export Plug-In . SVG Version: 6.00 Build 0)  -->
<svg version="1.1" id="Layer_1" xmlns="http://www.w3.org/2000/svg" xmlns:xlink="http://www.w3.org/1999/xlink" x="0px" y="0px"
	 viewBox="0 0 375 375" style="enable-background:new 0 0 375 375;" xml:space="preserve">
<style type="text/css">
	.st0{fill:#473EFF;}
</style>
<g>
	<path class="st0" d="M342,82.2c0-0.3,0-0.5-0.1-0.8c0,0,0-0.1,0-0.1c0-0.2-0.1-0.4-0.2-0.6c0-0.1-0.1-0.2-0.1-0.2
		c-0.1-0.2-0.2-0.3-0.3-0.5c0-0.1-0.1-0.1-0.1-0.2c-0.1-0.2-0.3-0.4-0.5-0.6c0,0,0,0,0,0L265.9,4.3c0,0,0,0,0,0
		c-0.2-0.2-0.4-0.3-0.6-0.5c-0.1,0-0.1-0.1-0.2-0.1c-0.2-0.1-0.3-0.2-0.5-0.3c-0.1,0-0.2-0.1-0.3-0.1c-0.2-0.1-0.4-0.1-0.6-0.2
		c0,0-0.1,0-0.1,0C263.3,3,263,3,262.8,3c0,0-0.1,0-0.1,0H37.5C35,3,33,5,33,7.5v360c0,2.5,2,4.5,4.5,4.5h300c2.5,0,4.5-2,4.5-4.5
		L342,82.2C342,82.3,342,82.3,342,82.2z M326.6,77.8h-59.5V18.4L326.6,77.8z M333,363H42V12h216.2v70.3c0,2.5,2,4.5,4.5,4.5H333V363
		z"/>
	<path class="st0" d="M202.3,281.6h-29.6c-4.9,0-8.9-4-8.9-8.9v-53.4h-53.4c-4.9,0-8.9-4-8.9-8.9v-29.6c0-4.9,4-8.9,8.9-8.9h53.4
		v-53.4c0-4.9,4-8.9,8.9-8.9h29.6c4.9,0,8.9,4,8.9,8.9v53.4h53.4c4.9,0,8.9,4,8.9,8.9v29.6c0,4.9-4,8.9-8.9,8.9h-53.4v53.4
		C211.2,277.6,207.2,281.6,202.3,281.6z M172.8,272.6h29.4v-57.8c0-2.5,2-4.5,4.5-4.5h57.8v-29.4h-57.8c-2.5,0-4.5-2-4.5-4.5v-57.8
		h-29.4v57.8c0,2.5-2,4.5-4.5,4.5h-57.8v29.4h57.8c2.5,0,4.5,2,4.5,4.5V272.6z M264.7,180.8L264.7,180.8L264.7,180.8z"/>
</g>
</svg>
