<?xml version="1.0" encoding="utf-8"?>
<!-- Generator: Adobe Illustrator 21.1.0, SVG Export Plug-In . SVG Version: 6.00 Build 0)  -->
<svg version="1.1" id="Layer_1" xmlns="http://www.w3.org/2000/svg" xmlns:xlink="http://www.w3.org/1999/xlink" x="0px" y="0px"
	 viewBox="0 0 375 375" style="enable-background:new 0 0 375 375;" xml:space="preserve">
<style type="text/css">
	.st0{fill:#473EFF;}
</style>
<g>
	<g>
		<g>
			<g>
				<path class="st0" d="M215.1,372h-55.4c-13.9,0-21.6-7.7-21.6-21.6v-38c-12.2-4.9-23.5-11.5-33.9-19.8l-31.2,17.8
					c-4.3,2.5-8.5,3.8-12.4,3.8c-4.8,0-11.7-2-17.2-11.4l-28.5-49.3c-0.1-0.3-0.3-0.5-0.4-0.8c-0.1-0.3-0.2-0.4-0.2-0.5
					c-0.2-0.3-0.4-0.6-0.5-0.9c-6.9-14.2,1.1-22.7,9-27.3l31.8-18.4c-0.6-4.4-0.9-8.8-1.1-13.1l0-0.4c0-0.1,0-0.2,0-0.3v-3.8
					c0-6.9,0.5-13.5,1.5-20.1l-32.1-18.4c-5.7-3.4-9.3-7.5-10.6-12c-2.5-6.7,0.3-13.1,2.5-17.4c0-0.1,0.1-0.1,0.1-0.2l28.8-49.3
					c5.3-9.7,12.3-11.7,17.1-11.7c3.8,0,7.9,1.2,12.1,3.7l33.2,19.1c3-2.3,6.1-4.5,9.2-6.6c7.3-4.7,14.9-8.6,22.7-11.7V24.6
					c0-13.9,7.7-21.6,21.6-21.6h55.4c13.9,0,21.6,7.7,21.6,21.6v38.3c11.7,4.5,23.1,11.1,33.9,19.8l31.1-18
					c4.3-2.6,8.4-3.9,12.3-3.9c4.8,0,11.7,2.1,17.3,11.9l28.4,49.3c7,12,4.3,22.2-7.6,29.5c0,0-0.1,0.1-0.1,0.1l-31.9,18.2
					c0.4,4.3,0.7,8.7,0.9,12.9l0,0.5c0,0.1,0,0.2,0,0.3v3.8c0,6.9-0.5,13.5-1.5,20.1l32.1,18.6c5.5,3,9.2,6.9,10.9,11.6
					c0,0,0,0.1,0,0.1c1.2,3.6,1,7.9-0.6,12.8c-0.5,1.9-1.4,3.6-2.3,5.2l-28.4,49.3c0,0,0,0.1-0.1,0.1c-4.6,7.5-10.4,11.3-17.2,11.3
					c-3.9,0-7.9-1.2-12.3-3.8l-33.2-19.1c-3,2.3-6,4.5-9,6.8c-0.1,0.1-0.2,0.2-0.4,0.3c-7.6,4.5-15.1,8.3-22.5,11.3v38.7
					C236.7,364.3,229.1,372,215.1,372z M104.7,282.7c1,0,2.1,0.4,2.9,1c11.1,9.3,23.4,16.4,36.6,21.4c1.8,0.7,2.9,2.3,2.9,4.2v41.1
					c0,8.9,3.6,12.6,12.6,12.6h55.4c8.9,0,12.6-3.6,12.6-12.6v-41.8c0-1.9,1.2-3.6,2.9-4.2c7.7-2.9,15.7-6.7,23.7-11.6
					c3.7-2.8,7.5-5.6,11.2-8.4c1.4-1.1,3.4-1.2,5-0.3l35.7,20.6c3,1.7,5.6,2.6,7.8,2.6c2.2,0,5.6-0.7,9.5-7l28.4-49.3
					c0.8-1.4,1.3-2.3,1.4-2.9c0-0.1,0.1-0.2,0.1-0.4c1-3,1.2-5.5,0.6-7.2c-1-2.6-3.2-4.8-6.7-6.7c0,0-0.1-0.1-0.1-0.1l-34.8-20.2
					c-1.6-0.9-2.5-2.8-2.2-4.7c1.2-7.1,1.8-14.2,1.8-21.7l0-4c-0.3-5.1-0.6-10.3-1.2-15.4c-0.2-1.8,0.7-3.5,2.2-4.4l34.4-19.6
					c7.7-4.7,8.9-9.6,4.4-17.3l-28.5-49.4c-4.2-7.4-8.2-7.4-9.5-7.4c-2.2,0-4.8,0.9-7.7,2.6c0,0-0.1,0-0.1,0.1l-33.8,19.6
					c-1.6,0.9-3.7,0.8-5.1-0.4c-11.7-9.8-24-16.9-36.6-21.4c-1.8-0.6-3-2.3-3-4.2V24.6c0-8.9-3.7-12.6-12.6-12.6h-55.4
					c-8.9,0-12.6,3.6-12.6,12.6v41.7c0,1.9-1.2,3.6-2.9,4.2c-8.2,3-16.2,7-23.8,11.9c-3.5,2.4-7.2,5.1-10.8,7.8l-0.3,0.2
					c-1.4,1.1-3.4,1.2-4.9,0.3L68.6,70.2c-2.8-1.6-5.4-2.5-7.6-2.5c-1.3,0-5.4,0-9.3,7.1c0,0,0,0.1-0.1,0.1l-28.7,49.3
					c-3,5.7-2.6,8.4-2,10.1c0.1,0.1,0.1,0.3,0.1,0.4c0.6,2.3,2.8,4.6,6.5,6.8l34.7,19.9c1.6,0.9,2.5,2.8,2.2,4.7
					c-1.2,7.1-1.8,14.2-1.8,21.7l0,3.9C63,197,63.4,202,64.2,207c0.3,1.9-0.5,3.7-2.2,4.7l-34.5,19.9c-7.1,4.1-8.7,8.6-5.7,15.2
					c0.5,0.6,0.8,1.4,1.2,2.4l28.3,49c4,7,8.1,7,9.4,7c2.3,0,4.9-0.9,7.9-2.6l33.9-19.3C103.2,282.8,104,282.7,104.7,282.7z
					 M14.9,252.4C14.9,252.4,14.9,252.4,14.9,252.4C14.9,252.4,14.9,252.4,14.9,252.4z M14.5,251.9L14.5,251.9L14.5,251.9z"/>
			</g>
		</g>
	</g>
	<g>
		<g>
			<g>
				<g>
					<rect x="125.6" y="142.9" class="st0" width="11.1" height="9"/>
				</g>
				<rect x="148.4" y="142.9" class="st0" width="101" height="9"/>
			</g>
			<g>
				<rect x="148.4" y="183" class="st0" width="101" height="9"/>
				<g>
					<rect x="125.6" y="183" class="st0" width="11.1" height="9"/>
				</g>
			</g>
			<g>
				<rect x="148.4" y="223.1" class="st0" width="101" height="9"/>
				<g>
					<rect x="125.6" y="223.1" class="st0" width="11.1" height="9"/>
				</g>
			</g>
		</g>
	</g>
</g>
</svg>
