<?xml version="1.0" encoding="utf-8"?>
<!-- Generator: Adobe Illustrator 21.1.0, SVG Export Plug-In . SVG Version: 6.00 Build 0)  -->
<svg version="1.1" id="Layer_1" xmlns="http://www.w3.org/2000/svg" xmlns:xlink="http://www.w3.org/1999/xlink" x="0px" y="0px"
	 viewBox="0 0 375 375" style="enable-background:new 0 0 375 375;" xml:space="preserve">
<style type="text/css">
	.st0{fill:#473EFF;}
</style>
<g>
	<g>
		<circle class="st0" cx="38.4" cy="74" r="7.9"/>
		<circle class="st0" cx="64.1" cy="74" r="7.9"/>
		<circle class="st0" cx="89.7" cy="74" r="7.9"/>
		<path class="st0" d="M297.9,45.3H24.5C12.6,45.3,3,55,3,66.8v199.7c0,11.9,9.6,21.5,21.5,21.5h237.7c2.5,0,4.5-2,4.5-4.5
			c0-2.5-2-4.5-4.5-4.5H24.5c-6.9,0-12.5-5.6-12.5-12.5V102.7h298.4v94.1c0,2.5,2,4.5,4.5,4.5c2.5,0,4.5-2,4.5-4.5v-130
			C319.4,55,309.7,45.3,297.9,45.3z M12,93.7V66.8c0-6.9,5.6-12.5,12.5-12.5h273.4c6.9,0,12.5,5.6,12.5,12.5v26.9H12z"/>
	</g>
	<path class="st0" d="M367.5,247.5h-15.1v-17.6c0-20.7-16.8-37.5-37.5-37.5c-20.7,0-37.5,16.8-37.5,37.5v17.6h-15.1
		c-2.5,0-4.5,2-4.5,4.5v73.2c0,2.5,2,4.5,4.5,4.5h105.3c2.5,0,4.5-2,4.5-4.5V252C372,249.5,370,247.5,367.5,247.5z M286.3,229.8
		c0-15.7,12.8-28.5,28.5-28.5c15.7,0,28.5,12.8,28.5,28.5v17.6h-57.1V229.8z M363,320.7h-96.3v-64.2H363V320.7z"/>
</g>
</svg>
