<?xml version="1.0" encoding="utf-8"?>
<!-- Generator: Adobe Illustrator 21.1.0, SVG Export Plug-In . SVG Version: 6.00 Build 0)  -->
<svg version="1.1" id="Layer_1" xmlns="http://www.w3.org/2000/svg" xmlns:xlink="http://www.w3.org/1999/xlink" x="0px" y="0px"
	 viewBox="0 0 375 375" style="enable-background:new 0 0 375 375;" xml:space="preserve">
<style type="text/css">
	.st0{fill:#473EFF;}
</style>
<g>
	<g>
		<path class="st0" d="M172.5,274c-1.7,0-3.3-0.6-4.6-1.7l-67.3-57.1c-3-2.5-3.4-6.9-1-9.9l17-21.4c1.1-1.4,2.7-2.3,4.5-2.6l0.2,0
			c0.1,0,0.2,0,0.2,0c1.9-0.2,3.9,0.5,5.3,1.7l41.3,36l76.3-88.6c1.1-1.3,2.6-2.1,4.2-2.4c0.2,0,0.5-0.1,0.7-0.1
			c1.9-0.1,3.7,0.5,5.2,1.7l20.7,17.8c3,2.6,3.3,7.1,0.8,10.1l-98.1,114c-1.1,1.3-2.6,2.1-4.3,2.4C173.3,273.9,172.9,274,172.5,274z
			 M171.1,265.6C171.1,265.6,171.1,265.6,171.1,265.6L171.1,265.6z M107.8,209.5l64.5,54.7L268,153l-18-15.4l-78,90.7
			c-0.8,0.9-1.9,1.5-3.1,1.6c-1.2,0.1-2.4-0.3-3.3-1.1L122.5,191L107.8,209.5z M123.7,189.4L123.7,189.4
			C123.7,189.4,123.7,189.4,123.7,189.4z"/>
	</g>
	<path class="st0" d="M342,82.2c0-0.3,0-0.5-0.1-0.8c0,0,0-0.1,0-0.1c0-0.2-0.1-0.4-0.2-0.6c0-0.1-0.1-0.2-0.1-0.2
		c-0.1-0.2-0.2-0.3-0.3-0.5c0-0.1-0.1-0.1-0.1-0.2c-0.1-0.2-0.3-0.4-0.5-0.6c0,0,0,0,0,0L265.9,4.3c-0.2-0.2-0.4-0.4-0.6-0.5
		c-0.1,0-0.1-0.1-0.2-0.1c-0.2-0.1-0.3-0.2-0.5-0.3c-0.1,0-0.2-0.1-0.2-0.1c-0.2-0.1-0.4-0.2-0.7-0.2c0,0-0.1,0-0.1,0
		C263.3,3,263,3,262.8,3c0,0-0.1,0-0.1,0H37.5C35,3,33,5,33,7.5v360c0,2.5,2,4.5,4.5,4.5h300c2.5,0,4.5-2,4.5-4.5L342,82.2
		C342,82.3,342,82.3,342,82.2z M267.2,18.4l59.5,59.5h-59.5V18.4z M333,363H42V12h216.2v70.3c0,2.5,2,4.5,4.5,4.5H333V363z"/>
</g>
</svg>
