<?xml version="1.0" encoding="utf-8"?>
<!-- Generator: Adobe Illustrator 21.1.0, SVG Export Plug-In . SVG Version: 6.00 Build 0)  -->
<svg version="1.1" id="Layer_1" xmlns="http://www.w3.org/2000/svg" xmlns:xlink="http://www.w3.org/1999/xlink" x="0px" y="0px"
	 viewBox="0 0 375 375" style="enable-background:new 0 0 375 375;" xml:space="preserve">
<style type="text/css">
	.st0{fill:#473EFF;}
</style>
<g>
	<g>
		<g>
			<path class="st0" d="M323.1,178.9h-80.7l40.3-69.8L323.1,178.9z M258,169.9h49.5l-24.7-42.8L258,169.9z"/>
		</g>
		<path class="st0" d="M88.3,178.9c-18.3,0-33.1-14.9-33.1-33.1c0-18.3,14.9-33.1,33.1-33.1s33.1,14.9,33.1,33.1
			C121.5,164,106.6,178.9,88.3,178.9z M88.3,121.6c-13.3,0-24.1,10.8-24.1,24.1c0,13.3,10.8,24.1,24.1,24.1s24.1-10.8,24.1-24.1
			C112.5,132.4,101.6,121.6,88.3,121.6z"/>
		<path class="st0" d="M217.8,178.9H153V114h64.8V178.9z M162,169.9h46.8V123H162V169.9z"/>
	</g>
	<path class="st0" d="M367.5,258.2H7.5c-2.5,0-4.5-2-4.5-4.5V39.2c0-2.5,2-4.5,4.5-4.5h360c2.5,0,4.5,2,4.5,4.5v214.5
		C372,256.2,370,258.2,367.5,258.2z M12,249.2h351V43.7H12V249.2z"/>
	<path class="st0" d="M192,39.2V8.8c0-2.5-2-4.5-4.5-4.5c-2.5,0-4.5,2-4.5,4.5v30.5H192z"/>
	<path class="st0" d="M127.3,253.7l-40.6,111c-0.9,2.3,0.3,4.9,2.7,5.8c0.5,0.2,1,0.3,1.5,0.3c1.8,0,3.6-1.1,4.2-3l41.8-114.1H127.3
		z"/>
	<path class="st0" d="M247.7,253.7h-9.6l41.8,114.1c0.7,1.8,2.4,3,4.2,3c0.5,0,1-0.1,1.5-0.3c2.3-0.9,3.5-3.4,2.7-5.8L247.7,253.7z"
		/>
</g>
</svg>
