<?xml version="1.0" encoding="utf-8"?>
<!-- Generator: Adobe Illustrator 21.1.0, SVG Export Plug-In . SVG Version: 6.00 Build 0)  -->
<svg version="1.1" id="Layer_1" xmlns="http://www.w3.org/2000/svg" xmlns:xlink="http://www.w3.org/1999/xlink" x="0px" y="0px"
	 viewBox="0 0 375 375" style="enable-background:new 0 0 375 375;" xml:space="preserve">
<style type="text/css">
	.st0{fill:#473EFF;}
</style>
<g>
	<path class="st0" d="M350.5,35.6h-326C12.6,35.6,3,45.3,3,57.1v196.6c0,11.9,9.6,21.5,21.5,21.5h43.1c2.5,0,4.5-2,4.5-4.5
		c0-2.5-2-4.5-4.5-4.5H24.5c-6.9,0-12.5-5.6-12.5-12.5V146.9h351v106.8c0,6.9-5.6,12.5-12.5,12.5H198.6c-2.5,0-4.5,2-4.5,4.5
		c0,2.5,2,4.5,4.5,4.5h151.9c11.9,0,21.5-9.6,21.5-21.5V57.1C372,45.3,362.4,35.6,350.5,35.6z M24.5,44.6h326
		c6.9,0,12.5,5.6,12.5,12.5v35.2H12V57.1C12,50.3,17.6,44.6,24.5,44.6z M12,137.9v-36.6h351v36.6H12z"/>
	<path class="st0" d="M197.6,199.7L135.3,181c-0.7-0.2-1.4-0.3-2.2-0.3c0,0,0,0,0,0c0,0,0,0,0,0c-0.7,0-1.5,0.1-2.2,0.3l-62.4,18.7
		c-3.2,1-5.4,4-5.4,7.3v68.6c0,13.6,8.8,27.7,25.6,40.8c14.8,11.6,32,19.4,42.2,22.6c0.7,0.2,1.5,0.3,2.3,0.3c0.8,0,1.5-0.1,2.3-0.3
		c10.2-3.2,27.4-11,42.2-22.6c16.7-13.1,25.6-27.2,25.6-40.8V207C203.1,203.6,200.9,200.7,197.6,199.7z M72.1,275.6V208l56.5-16.9
		v137.7C106.9,320.5,72.1,298.7,72.1,275.6z M194.1,275.6c0,23.1-34.9,44.9-56.5,53.1V191.1l56.5,16.9V275.6z"/>
</g>
</svg>
