<?xml version="1.0" encoding="utf-8"?>
<!-- Generator: Adobe Illustrator 21.1.0, SVG Export Plug-In . SVG Version: 6.00 Build 0)  -->
<svg version="1.1" id="Layer_1" xmlns="http://www.w3.org/2000/svg" xmlns:xlink="http://www.w3.org/1999/xlink" x="0px" y="0px"
	 viewBox="0 0 375 375" style="enable-background:new 0 0 375 375;" xml:space="preserve">
<style type="text/css">
	.st0{fill:#473EFF;}
</style>
<g>
	<g>
		<path class="st0" d="M372,115.3h-9V12H259.7V3h107.8c2.5,0,4.5,2,4.5,4.5V115.3z"/>
		<path class="st0" d="M12,115.3H3V7.5C3,5,5,3,7.5,3h107.8v9H12V115.3z"/>
		<path class="st0" d="M115.3,372H7.5C5,372,3,370,3,367.5V259.7h9V363h103.3V372z"/>
		<path class="st0" d="M367.5,372H259.7v-9H363V259.7h9v107.8C372,370,370,372,367.5,372z"/>
	</g>
	<g>
		<path class="st0" d="M300.2,110.8H74.8c-2.5,0-4.5,2-4.5,4.5v144.3c0,2.5,2,4.5,4.5,4.5h225.3c2.5,0,4.5-2,4.5-4.5V115.3
			C304.7,112.9,302.6,110.8,300.2,110.8z M295.7,119.8v26.5H79.3v-26.5H295.7z M295.7,155.3v19.6H79.3v-19.6H295.7z M79.3,255.2
			v-71.3h216.3v71.3H79.3z"/>
		<path class="st0" d="M266.8,204.7h-42.1c-2.5,0-4.5,2-4.5,4.5v20.7c0,2.5,2,4.5,4.5,4.5h42.1c2.5,0,4.5-2,4.5-4.5v-20.7
			C271.3,206.7,269.3,204.7,266.8,204.7z M262.3,225.4h-33.1v-11.7h33.1V225.4z"/>
	</g>
</g>
</svg>
