<?xml version="1.0" encoding="utf-8"?>
<!-- Generator: Adobe Illustrator 22.0.1, SVG Export Plug-In . SVG Version: 6.00 Build 0)  -->
<svg version="1.1" id="Layer_1" xmlns="http://www.w3.org/2000/svg" xmlns:xlink="http://www.w3.org/1999/xlink" x="0px" y="0px"
	 viewBox="0 0 375 375" style="enable-background:new 0 0 375 375;" xml:space="preserve">
<style type="text/css">
	.st0{fill:#473EFF;}
</style>
<g>
	<path class="st0" d="M158.9,168.6c2.1,1.7,5.1,1.5,6.9-0.6c1.7-2.1,1.5-5.1-0.6-6.9c-17.5-14.8-24.5-43.1-16.2-65.8
		c6.3-17.1,19.9-26.9,37.3-26.9c12,0,21.8,4.3,28.9,12.6c10.5,12.3,13.2,30.7,11.2,43.5c-5.3,33.1-28.7,52-45.8,63.2
		c-2.2,1.5-2.9,4.5-1.4,6.8c0.9,1.4,2.5,2.2,4.1,2.2c0.9,0,1.8-0.3,2.7-0.8c18.7-12.3,44.2-32.9,50.1-69.9
		c2.4-15-0.9-36.7-13.4-51.4c-9-10.5-21.6-16-36.4-16c-21.8,0-38.8,12.1-46.5,33.3C130.1,118.7,138.1,151,158.9,168.6z"/>
	<path class="st0" d="M277.4,233.1c-8.2-24.5-46.2-40.9-47.8-41.5c-1.2-0.5-2.6-0.5-3.8,0c-1.2,0.5-2.2,1.5-2.7,2.7
		c-6.8,17-20.8,27.6-36.5,27.6c-15.7,0-29.1-10.3-36-27.6c-0.5-1.2-1.4-2.2-2.7-2.7c-1.2-0.5-2.6-0.5-3.8,0
		c-1.6,0.7-39.6,17-47.8,41.6c-5,15.1-4.8,25.5-4.6,37.6c0,2.5,0.1,5.1,0.1,7.9c0,2.7,2.2,4.9,4.9,4.9c2.7,0,4.9-2.2,4.9-4.9
		c0-2.8,0-5.5-0.1-8.1c-0.2-11.6-0.4-20.8,4.1-34.3c5.4-16,28.3-28.8,38-33.6c8.9,18,25,29,43,29c18.2,0,34.5-11,43.4-29.1
		c9.7,4.8,32.6,17.6,38,33.6c3.6,10.8,5.5,34.5,5.6,70.4H95.7c-2.7,0-4.9,2.2-4.9,4.9c0,2.7,2.2,4.9,4.9,4.9h183.7
		c2.7,0,4.9-2.2,4.9-4.9c0-0.8-0.3-1.6-0.6-2.3C283.6,292.5,283.3,250.7,277.4,233.1z"/>
	<path class="st0" d="M347.2,159.6c0-30.6-21.1-55.5-47-55.5c-14.4,0-27.9,7.7-36.2,20.6c-9.5,14.8-10.1,33.6-1.8,51.7
		c1.1,2.5,4.1,3.5,6.5,2.4c2.5-1.1,3.5-4,2.4-6.5c-6.9-15-6.5-30.4,1.2-42.3c6.3-9.9,17.1-16.1,28-16.1c20.5,0,37.2,20.5,37.2,45.8
		c0,25.3-16.7,45.8-37.2,45.8c-2.7,0-4.9,2.2-4.9,4.9c0,2.7,2.2,4.9,4.9,4.9C326.1,215.2,347.2,190.3,347.2,159.6z"/>
	<path class="st0" d="M363.2,258.1c-3.8-20.1-15.6-31.1-22.3-35.8c-2.2-1.6-5.2-1-6.8,1.2c-1.6,2.2-1,5.2,1.2,6.8
		c5.5,3.9,15.2,12.9,18.3,29.6c2.3,12.3,3.4,27.5,3.9,35.3h-42.2c-2.7,0-4.9,2.2-4.9,4.9c0,2.7,2.2,4.9,4.9,4.9h47.3
		c1.3,0,2.6-0.5,3.5-1.5c0.9-1,1.4-2.2,1.4-3.6C367.4,298.9,366.5,276,363.2,258.1z"/>
	<path class="st0" d="M74.8,205.4c-20.5,0-37.2-20.6-37.2-45.8c0-25.2,16.7-45.8,37.2-45.8c10.9,0,21.6,6.2,28,16.1
		c7.7,11.9,8.1,27.4,1.2,42.3c-1.1,2.4,0,5.3,2.4,6.5c2.4,1.1,5.4,0.1,6.5-2.4c8.3-18.1,7.7-36.9-1.8-51.7
		c-8.2-12.9-21.8-20.6-36.2-20.6c-25.9,0-47,24.9-47,55.5c0,30.7,21.1,55.6,47,55.6c2.7,0,4.9-2.2,4.9-4.9
		C79.7,207.6,77.5,205.4,74.8,205.4z"/>
	<path class="st0" d="M59.7,295.2H17.5c0.5-7.8,1.6-23,3.9-35.3c2.9-15.3,11.1-24.2,17.5-29c2.2-1.6,2.6-4.7,1-6.8
		c-1.6-2.2-4.7-2.6-6.8-1c-7.8,5.8-17.8,16.6-21.2,35c-3.3,17.9-4.2,40.8-4.3,41.8c-0.1,1.3,0.4,2.6,1.4,3.6c0.9,1,2.2,1.5,3.5,1.5
		h47.3c2.7,0,4.9-2.2,4.9-4.9C64.6,297.3,62.4,295.2,59.7,295.2z"/>
</g>
</svg>
