<?xml version="1.0" encoding="utf-8"?>
<!-- Generator: Adobe Illustrator 21.1.0, SVG Export Plug-In . SVG Version: 6.00 Build 0)  -->
<svg version="1.1" id="Layer_1" xmlns="http://www.w3.org/2000/svg" xmlns:xlink="http://www.w3.org/1999/xlink" x="0px" y="0px"
	 viewBox="0 0 375 375" style="enable-background:new 0 0 375 375;" xml:space="preserve">
<style type="text/css">
	.st0{fill:#473EFF;}
</style>
<g>
	<path class="st0" d="M370.2,364.3L290.9,285c28.6-30,46.2-70.6,46.2-115.2C337.2,77.9,262.3,3,170.3,3C78.3,3,3.4,77.9,3.4,169.9
		c0,92,74.9,166.9,166.9,166.9c44.2,0,84.4-17.3,114.2-45.4l79.3,79.3c0.9,0.9,2,1.3,3.2,1.3c1.2,0,2.3-0.4,3.2-1.3
		C372,368.9,372,366.1,370.2,364.3z M170.3,327.7c-87,0-157.9-70.8-157.9-157.9C12.4,82.8,83.3,12,170.3,12
		c87,0,157.9,70.8,157.9,157.9C328.2,256.9,257.4,327.7,170.3,327.7z"/>
	<g>
		<g>
			<path class="st0" d="M170.3,175c-2.5,0-4.5-2-4.5-4.5v-38.3c0-2.5,2-4.5,4.5-4.5c2.5,0,4.5,2,4.5,4.5v38.3
				C174.8,173,172.8,175,170.3,175z"/>
			<circle class="st0" cx="170.3" cy="192" r="7.6"/>
		</g>
	</g>
	<path class="st0" d="M235.8,227.4H104.8c-5.5,0-10.4-2.8-13.1-7.4c-2.7-4.7-2.7-10.2,0-14.9l65.5-113.5c2.7-4.7,7.6-7.5,13.1-7.5
		c5.5,0,10.3,2.8,13.1,7.5L248.9,205c2.7,4.7,2.7,10.3,0,15C246.3,224.6,241.4,227.4,235.8,227.4z M170.3,93c-2.2,0-4.2,1.1-5.3,3.1
		L99.5,209.6c-1.1,1.9-1.1,4,0,5.9c1.1,1.9,3,2.9,5.3,2.9h131.1c2.3,0,4.2-1,5.3-2.9c1.1-1.9,1.1-4.1,0-6L175.6,96.1l0,0
		C174.5,94.1,172.6,93,170.3,93z"/>
</g>
</svg>
