<?xml version="1.0" encoding="utf-8"?>
<!-- Generator: Adobe Illustrator 21.1.0, SVG Export Plug-In . SVG Version: 6.00 Build 0)  -->
<svg version="1.1" id="Layer_1" xmlns="http://www.w3.org/2000/svg" xmlns:xlink="http://www.w3.org/1999/xlink" x="0px" y="0px"
	 viewBox="0 0 375 375" style="enable-background:new 0 0 375 375;" xml:space="preserve">
<style type="text/css">
	.st0{fill:#473EFF;}
</style>
<g>
	<g>
		<g>
			<g>
				<g>
					<path class="st0" d="M282.4,108.8c-1.1,0-2.1-0.4-3-1.1l-18.2-15.8c-1.9-1.6-2.1-4.5-0.4-6.3c1.6-1.9,4.5-2.1,6.3-0.4
						l14.7,12.9l29.2-34c1.6-1.9,4.5-2.1,6.3-0.5c1.9,1.6,2.1,4.5,0.5,6.3l-32.2,37.4c-0.8,0.9-1.9,1.5-3.1,1.6
						C282.6,108.8,282.5,108.8,282.4,108.8z"/>
				</g>
			</g>
		</g>
		<path class="st0" d="M367.5,168.2H211.3c-2.5,0-4.5-2-4.5-4.5V7.5c0-2.5,2-4.5,4.5-4.5h156.2c2.5,0,4.5,2,4.5,4.5v156.2
			C372,166.1,370,168.2,367.5,168.2z M215.8,159.2H363V12H215.8V159.2z"/>
	</g>
	<g>
		<g>
			<g>
				<g>
					<path class="st0" d="M78.6,108.8c-1.1,0-2.1-0.4-3-1.1L57.5,91.8c-1.9-1.6-2.1-4.5-0.4-6.3c1.6-1.9,4.5-2.1,6.3-0.4l14.7,12.9
						l29.2-34c1.6-1.9,4.5-2.1,6.3-0.5c1.9,1.6,2.1,4.5,0.5,6.3L82,107.2c-0.8,0.9-1.9,1.5-3.1,1.6
						C78.8,108.8,78.7,108.8,78.6,108.8z"/>
				</g>
			</g>
		</g>
		<path class="st0" d="M163.7,168.2H7.5c-2.5,0-4.5-2-4.5-4.5V7.5C3,5,5,3,7.5,3h156.2c2.5,0,4.5,2,4.5,4.5v156.2
			C168.2,166.1,166.1,168.2,163.7,168.2z M12,159.2h147.2V12H12V159.2z"/>
	</g>
	<g>
		<g>
			<g>
				<g>
					<path class="st0" d="M78.6,312.6c-1.1,0-2.1-0.4-3-1.1l-18.2-15.8c-1.9-1.6-2.1-4.5-0.4-6.3c1.6-1.9,4.5-2.1,6.3-0.4l14.7,12.9
						l29.2-34c1.6-1.9,4.5-2.1,6.3-0.5c1.9,1.6,2.1,4.5,0.5,6.3L82,311.1c-0.8,0.9-1.9,1.5-3.1,1.6
						C78.8,312.6,78.7,312.6,78.6,312.6z"/>
				</g>
			</g>
		</g>
		<path class="st0" d="M163.7,372H7.5C5,372,3,370,3,367.5V211.3c0-2.5,2-4.5,4.5-4.5h156.2c2.5,0,4.5,2,4.5,4.5v156.2
			C168.2,370,166.1,372,163.7,372z M12,363h147.2V215.8H12V363z"/>
	</g>
	<path class="st0" d="M367.5,372H211.3c-2.5,0-4.5-2-4.5-4.5V211.3c0-2.5,2-4.5,4.5-4.5h156.2c2.5,0,4.5,2,4.5,4.5v156.2
		C372,370,370,372,367.5,372z M215.8,363H363V215.8H215.8V363z"/>
	<path class="st0" d="M295.8,289.4l17.9-17.9c1.8-1.8,1.8-4.6,0-6.4c-1.8-1.8-4.6-1.8-6.4,0l-17.9,17.9l-17.9-17.9
		c-1.8-1.8-4.6-1.8-6.4,0c-1.8,1.8-1.8,4.6,0,6.4l17.9,17.9l-17.9,17.9c-1.8,1.8-1.8,4.6,0,6.4c0.9,0.9,2,1.3,3.2,1.3
		c1.2,0,2.3-0.4,3.2-1.3l17.9-17.9l17.9,17.9c0.9,0.9,2,1.3,3.2,1.3c1.2,0,2.3-0.4,3.2-1.3c1.8-1.8,1.8-4.6,0-6.4L295.8,289.4z"/>
</g>
</svg>
