<?xml version="1.0" encoding="utf-8"?>
<!-- Generator: Adobe Illustrator 21.1.0, SVG Export Plug-In . SVG Version: 6.00 Build 0)  -->
<svg version="1.1" id="Layer_1" xmlns="http://www.w3.org/2000/svg" xmlns:xlink="http://www.w3.org/1999/xlink" x="0px" y="0px"
	 viewBox="0 0 375 375" style="enable-background:new 0 0 375 375;" xml:space="preserve">
<style type="text/css">
	.st0{fill:#473EFF;}
</style>
<g>
	<g>
		<g>
			<path class="st0" d="M187.5,372c-1.2,0-2.5-0.2-3.6-0.5c-24-7.5-64.5-25.9-99.4-53.3C57.6,297,25.5,263.7,25.5,225V60
				c0-5.3,3.5-10,8.6-11.5l150-45c2.3-0.7,4.6-0.7,6.9,0l150,45c5.1,1.5,8.6,6.2,8.6,11.5v165c0,38.7-32.1,72-59.1,93.2
				c-34.9,27.3-75.3,45.8-99.4,53.3C190,371.8,188.8,372,187.5,372z M187.5,12c-0.3,0-0.6,0-0.9,0.1l-150,45
				c-1.3,0.4-2.1,1.6-2.1,2.9v165c0,35.1,30.2,66.2,55.6,86.1c33.9,26.6,73.2,44.5,96.5,51.8c0.5,0.2,1.3,0.2,1.7,0
				c23.4-7.3,62.6-25.2,96.5-51.8c25.4-19.9,55.6-51,55.6-86.1V60c0-1.3-0.9-2.5-2.2-2.9l-150-45C188.1,12,187.8,12,187.5,12z"/>
		</g>
	</g>
	<g>
		<g>
			<path class="st0" d="M239.6,232.3l20.9-20.9c1.8-1.8,1.8-4.6,0-6.4c-1.8-1.8-4.6-1.8-6.4,0l-20.9,20.9L212.3,205
				c-1.8-1.8-4.6-1.8-6.4,0c-1.8,1.8-1.8,4.6,0,6.4l20.9,20.9L206,253.2c-1.8,1.8-1.8,4.6,0,6.4c0.9,0.9,2,1.3,3.2,1.3
				c1.2,0,2.3-0.4,3.2-1.3l20.9-20.9l20.9,20.9c0.9,0.9,2,1.3,3.2,1.3c1.2,0,2.3-0.4,3.2-1.3c1.8-1.8,1.8-4.6,0-6.4L239.6,232.3z"/>
			<path class="st0" d="M143.7,262.8c-16.8,0-30.5-13.7-30.5-30.5c0-16.8,13.7-30.5,30.5-30.5c16.8,0,30.5,13.7,30.5,30.5
				C174.2,249.1,160.5,262.8,143.7,262.8z M143.7,210.8c-11.9,0-21.5,9.7-21.5,21.5c0,11.9,9.7,21.5,21.5,21.5
				c11.9,0,21.5-9.7,21.5-21.5C165.2,220.4,155.6,210.8,143.7,210.8z"/>
		</g>
		<g>
			<path class="st0" d="M148.1,142.7l20.9-20.9c1.8-1.8,1.8-4.6,0-6.4c-1.8-1.8-4.6-1.8-6.4,0l-20.9,20.9l-20.9-20.9
				c-1.8-1.8-4.6-1.8-6.4,0c-1.8,1.8-1.8,4.6,0,6.4l20.9,20.9l-20.9,20.9c-1.8,1.8-1.8,4.6,0,6.4c0.9,0.9,2,1.3,3.2,1.3
				c1.2,0,2.3-0.4,3.2-1.3l20.9-20.9l20.9,20.9c0.9,0.9,2,1.3,3.2,1.3s2.3-0.4,3.2-1.3c1.8-1.8,1.8-4.6,0-6.4L148.1,142.7z"/>
			<path class="st0" d="M231.3,173.2c-16.8,0-30.5-13.7-30.5-30.5c0-16.8,13.7-30.5,30.5-30.5s30.5,13.7,30.5,30.5
				C261.8,159.6,248.1,173.2,231.3,173.2z M231.3,121.2c-11.9,0-21.5,9.7-21.5,21.5c0,11.9,9.7,21.5,21.5,21.5
				c11.9,0,21.5-9.7,21.5-21.5C252.8,130.9,243.2,121.2,231.3,121.2z"/>
		</g>
	</g>
</g>
</svg>
