<?xml version="1.0" encoding="utf-8"?>
<!-- Generator: Adobe Illustrator 22.0.1, SVG Export Plug-In . SVG Version: 6.00 Build 0)  -->
<svg version="1.1" id="Layer_1" xmlns="http://www.w3.org/2000/svg" xmlns:xlink="http://www.w3.org/1999/xlink" x="0px" y="0px"
	 viewBox="0 0 375 375" style="enable-background:new 0 0 375 375;" xml:space="preserve">
<style type="text/css">
	.st0{fill:#473EFF;}
</style>
<g>
	<path class="st0" d="M352.9,155.3C306.5,84.4,254,51.3,187.5,51.3h0h0h0h0c-66.5,0-119,33-165.4,103.9c-8.4,12.9-14,22-14.6,31.8
		c-0.2,2.9,2.1,5.4,5,5.6c0.1,0,0.2,0,0.3,0c2.8,0,5.1-2.2,5.3-5c0.4-6.6,4.3-13.5,12.8-26.6c44.3-67.7,94-99.2,156.6-99.2
		c62.6,0,112.3,31.5,156.6,99.2c8.6,13.1,12.5,20.1,12.8,26.6c0.2,2.8,2.5,5,5.3,5c0.1,0,0.2,0,0.3,0c2.9-0.2,5.1-2.7,5-5.6
		C366.9,177.3,361.4,168.2,352.9,155.3z"/>
	<path class="st0" d="M346.1,213.5c-2.4-1.6-5.7-0.9-7.3,1.6c-40.8,63.2-95.2,98.1-153,98.1h0c-58.2,0-115.8-35.4-154-94.6
		c-1.6-2.4-4.8-3.1-7.3-1.6c-2.4,1.6-3.1,4.9-1.6,7.3c40.2,62.2,101.1,99.4,162.9,99.4h0c61.5,0,119-36.5,161.8-102.9
		C349.3,218.3,348.6,215.1,346.1,213.5z"/>
	<path class="st0" d="M270.6,185.3c0-47-38.3-85.3-85.3-85.3c-47,0-85.3,38.3-85.3,85.3c0,47,38.3,85.3,85.3,85.3
		C232.4,270.5,270.6,232.3,270.6,185.3z M110.6,185.3c0-41.2,33.5-74.7,74.7-74.7c41.2,0,74.7,33.5,74.7,74.7
		c0,41.2-33.5,74.7-74.7,74.7C144.1,260,110.6,226.5,110.6,185.3z"/>
	<path class="st0" d="M214.4,185.3c0-16-13-29-29-29c-16,0-29,13-29,29c0,16,13,29,29,29C201.4,214.3,214.4,201.3,214.4,185.3z"/>
</g>
</svg>
